<?xml version="1.0" encoding="UTF-8"?>
<svg version="1.1" xmlns="http://www.w3.org/2000/svg" width="1000" height="1000">
<path d="M0 0 C2.50216217 -0.0029981 5.00432387 -0.00640211 7.50648499 -0.01017761 C13.5601667 -0.01804812 19.61383308 -0.02122944 25.66751849 -0.02178999 C30.59919424 -0.02226842 35.53086683 -0.0243393 40.46254158 -0.02749062 C54.50747976 -0.03627984 68.55241036 -0.04091283 82.59735131 -0.04016014 C83.3515535 -0.04012019 84.10575569 -0.04008023 84.8828125 -0.04003906 C85.63795751 -0.03999818 86.39310253 -0.0399573 87.17113072 -0.03991518 C99.38716659 -0.03950942 111.60317154 -0.04906587 123.81919848 -0.06317743 C136.42402272 -0.0776208 149.02883196 -0.08444324 161.63366467 -0.08358365 C168.68550715 -0.08325437 175.73731722 -0.08588179 182.78915215 -0.0967617 C189.43202111 -0.10694659 196.07481111 -0.10645105 202.71768761 -0.09924507 C205.13368073 -0.09821206 207.54967832 -0.1004841 209.96566391 -0.10660553 C263.72311502 -0.23381566 315.92188503 9.21766994 364.79907227 32.14526367 C365.72026855 32.57564941 366.64146484 33.00603516 367.59057617 33.44946289 C393.25145203 45.55924105 416.8726093 61.17696254 438.79907227 79.14526367 C439.35675293 79.59853027 439.91443359 80.05179687 440.48901367 80.51879883 C449.35407356 87.7789553 457.5555155 95.69644576 465.67407227 103.77026367 C466.16044159 104.25136597 466.64681091 104.73246826 467.1479187 105.22814941 C473.82870277 111.8528755 479.94850809 118.7756361 485.79907227 126.14526367 C486.82343703 127.38860941 487.85039831 128.62982518 488.88110352 129.86791992 C496.54314152 139.19109324 503.32348591 148.96734639 509.79907227 159.14526367 C510.19690918 159.76836426 510.59474609 160.39146484 511.00463867 161.03344727 C542.76667397 211.21663697 563.07717318 272.08358359 562.92212009 331.77312851 C562.92327394 332.88441754 562.92442778 333.99570656 562.92561659 335.14067101 C562.92825458 338.84873987 562.92378442 342.55676494 562.91932678 346.26483154 C562.91976306 348.95630956 562.92059692 351.64778479 562.92191595 354.33926225 C562.92398274 360.18276102 562.92235782 366.02624958 562.91827774 371.86974716 C562.91222778 380.55873243 562.91194332 389.2477113 562.91281973 397.9366983 C562.9141319 412.55492555 562.91079881 427.17314827 562.90480232 441.79137421 C562.89888178 456.26161471 562.89503566 470.73185333 562.89394951 485.20209503 C562.89388077 486.10239556 562.89381203 487.00269609 562.89374121 487.93027846 C562.89340287 492.50260015 562.89310148 497.07492184 562.89281433 501.64724353 C562.89071489 534.01832965 562.88398024 566.38941331 562.87451172 598.76049805 C562.8653248 630.20515937 562.8582424 661.64982002 562.85400391 693.09448242 C562.85380662 694.54881946 562.85380662 694.54881946 562.85360534 696.03253705 C562.8522868 705.76939156 562.85101099 715.50624608 562.84976648 725.24310059 C562.84723039 745.07753341 562.84440914 764.91196618 562.84141541 784.74639893 C562.84127812 785.65831925 562.84114083 786.57023957 562.84099938 787.50979384 C562.83180141 848.38828481 562.81595653 909.26677441 562.79907227 970.14526367 C561.71028275 969.60066498 560.62149323 969.05606628 559.49971008 968.4949646 C558.05172919 967.77080919 556.6037463 967.04665779 555.15576172 966.32250977 C554.4404554 965.96470932 553.72514908 965.60690887 552.98816681 965.23826599 C549.02544199 963.25658448 545.06075422 961.27899824 541.09204102 959.30932617 C530.9411568 954.2654206 520.85741488 949.11690261 510.84204102 943.80932617 C505.01161983 940.72146207 499.15502413 937.68435027 493.29907227 934.64526367 C485.99630368 930.85353659 478.70061869 927.04957664 471.42407227 923.20776367 C463.7352696 919.14904031 456.01996423 915.14257078 448.29907227 911.14526367 C439.78078793 906.73495827 431.27392333 902.30492892 422.7902832 897.82836914 C413.78927272 893.0803071 404.76296199 888.3808283 395.73852539 883.67749023 C391.93444297 881.69456488 388.13039801 879.71158493 384.32963592 877.7223016 C382.41548281 876.72621889 380.49709255 875.73819931 378.57294959 874.76155365 C373.87212142 872.36014792 369.32803948 869.90132074 364.92582417 866.98433113 C348.16432778 856.32386911 332.11677957 856.45213697 312.97616303 856.69725132 C308.46812738 856.7414544 303.96038327 856.71504783 299.45223999 856.69776917 C291.66236495 856.67720619 283.87360921 856.69973901 276.08389854 856.75243759 C264.79361739 856.82856276 253.50408614 856.83537409 242.21359048 856.82587697 C223.85197448 856.81208933 205.4908588 856.85006708 187.12939453 856.92260742 C169.37287751 856.99261792 151.61651023 857.04331627 133.85986328 857.06420898 C132.76645705 857.06550548 131.67305083 857.06680197 130.54651108 857.06813775 C118.58078043 857.08188199 106.61504723 857.0914629 94.64931202 857.1001606 C91.4642723 857.10255654 88.27923261 857.10498894 85.09419294 857.10746501 C82.99289939 857.10908037 80.89160579 857.11063346 78.79031215 857.11212339 C65.50295129 857.12191029 52.21578765 857.14919747 38.92850721 857.19636035 C32.20567441 857.22004445 25.48282972 857.23693621 18.75997242 857.25193827 C14.32323941 857.26228697 9.88658836 857.27615573 5.44990349 857.29955101 C-18.84586168 857.42532951 -43.06862022 857.19599567 -67.07592773 852.95776367 C-68.31439453 852.74345703 -69.55286133 852.52915039 -70.82885742 852.30834961 C-135.17510854 840.7648836 -195.50390895 811.54785499 -243.33764648 766.82104492 C-245.28280954 765.00325953 -247.23466034 763.20983256 -249.22045898 761.43823242 C-256.34275397 755.06631393 -262.88303586 748.31129876 -269.20092773 741.14526367 C-269.66966309 740.62125977 -270.13839844 740.09725586 -270.62133789 739.55737305 C-292.53998922 715.02035153 -310.17189302 686.85531437 -324.20092773 657.14526367 C-324.58361816 656.33831055 -324.96630859 655.53135742 -325.3605957 654.69995117 C-340.98696642 621.34353871 -350.06550034 585.6884039 -354.20092773 549.14526367 C-354.28366912 548.48417068 -354.3664105 547.82307768 -354.4516592 547.14195156 C-355.54188926 537.19641443 -355.35694242 527.21230785 -355.36206055 517.22143555 C-355.36669598 515.10601211 -355.3717216 512.99058951 -355.37710571 510.87516785 C-355.39016887 505.14898265 -355.39666368 499.42280916 -355.40111637 493.6966114 C-355.40405922 490.10610424 -355.40816642 486.51560019 -355.41262054 482.9250946 C-355.42628445 471.65422218 -355.43595441 460.38335696 -355.43982244 449.11247683 C-355.44428934 436.17267517 -355.46177818 423.23297987 -355.49082303 410.29321051 C-355.51257535 400.24763706 -355.52253401 390.20209323 -355.52386355 380.15649652 C-355.52490268 374.17817741 -355.53061642 368.1999584 -355.54868317 362.22166443 C-355.68619057 313.99426373 -355.68619057 313.99426373 -352.20092773 292.14526367 C-352.07651778 291.33891637 -351.95210783 290.53256907 -351.82392788 289.70178699 C-351.13329593 285.26362973 -350.34026195 280.8603507 -349.45092773 276.45776367 C-349.19561279 275.17087646 -348.94029785 273.88398926 -348.67724609 272.55810547 C-346.23880734 260.52908689 -342.98549956 248.81418385 -339.20092773 237.14526367 C-338.93199707 236.3002832 -338.66306641 235.45530273 -338.38598633 234.5847168 C-323.96565742 189.67443251 -299.44044437 148.34826024 -267.53295898 113.69604492 C-265.56593745 111.54451216 -263.65539644 109.36234395 -261.76342773 107.14526367 C-254.85450725 99.20978189 -247.22561393 91.93758734 -239.20092773 85.14526367 C-238.29342773 84.34862305 -237.38592773 83.55198242 -236.45092773 82.73120117 C-227.47912763 74.90819407 -217.9501872 67.96337323 -208.20092773 61.14526367 C-207.57492676 60.70327637 -206.94892578 60.26128906 -206.30395508 59.8059082 C-162.34682181 28.90439344 -110.22227977 9.71197706 -57.07592773 2.83276367 C-55.84487305 2.67332275 -54.61381836 2.51388184 -53.34545898 2.34960938 C-35.56464493 0.19475537 -17.88370353 -0.00430991 0 0 Z M-129.8293457 236.60083008 C-133.02367369 240.19771844 -135.66625794 244.06833447 -138.20092773 248.14526367 C-138.70881836 248.90838867 -139.21670898 249.67151367 -139.73999023 250.45776367 C-150.38998719 267.06083586 -155.35879778 287.11227589 -155.34136963 306.67405701 C-155.34434075 307.72230544 -155.34731187 308.77055387 -155.35037303 309.8505674 C-155.35903228 313.35692938 -155.36056595 316.86325709 -155.36206055 320.36962891 C-155.36669077 322.88654147 -155.37171571 325.40345333 -155.37710571 327.92036438 C-155.39021415 334.75551719 -155.39670916 341.59065878 -155.40111637 348.42582202 C-155.40388504 352.70033119 -155.40812359 356.97483812 -155.41262054 361.24934578 C-155.42481057 373.10231477 -155.43510941 384.95528198 -155.43849564 396.8082571 C-155.4387152 397.56612997 -155.43893477 398.32400283 -155.43916099 399.10484153 C-155.43937927 399.86445407 -155.43959754 400.6240666 -155.43982244 401.40669769 C-155.44026589 402.94577372 -155.44071245 404.48484975 -155.44116211 406.02392578 C-155.44138354 406.78734891 -155.44160497 407.55077205 -155.44183311 408.33732922 C-155.44577582 420.69010107 -155.46321492 433.04281374 -155.48652163 445.39556276 C-155.51029997 458.1017234 -155.52270048 470.80785444 -155.52386355 483.51403767 C-155.52477685 490.63838842 -155.53044112 497.76266211 -155.54868317 504.8869915 C-155.56580048 511.59538374 -155.56728859 518.30360558 -155.55854416 525.01202202 C-155.55777711 527.46446118 -155.56207229 529.91690837 -155.57200241 532.36932755 C-155.63451769 548.78063705 -155.03356534 564.19618443 -149.07592773 579.70776367 C-148.77807373 580.49658936 -148.48021973 581.28541504 -148.17333984 582.09814453 C-143.45520839 594.09111972 -136.52453696 604.35714414 -128.20092773 614.14526367 C-127.43780273 615.15588867 -126.67467773 616.16651367 -125.88842773 617.20776367 C-107.64962748 637.14319651 -81.66310908 648.82945141 -54.8791424 650.33155692 C-51.50546582 650.40263904 -48.1369294 650.41691504 -44.76252747 650.40596008 C-43.48581938 650.40978563 -42.20911129 650.41361118 -40.89371508 650.41755265 C-37.39330327 650.42772935 -33.89299505 650.42567758 -30.39257514 650.42137206 C-26.60031874 650.41888576 -22.80808608 650.42794249 -19.01583862 650.43540955 C-11.60249826 650.44810685 -4.1891942 650.44995641 3.22415521 650.44760928 C9.25627085 650.44582011 15.28837555 650.44758856 21.32048988 650.45183372 C22.18179536 650.45242891 23.04310083 650.4530241 23.93050647 650.45363733 C25.6807571 650.45484919 27.43100773 650.45606333 29.18125836 650.4572797 C45.56651536 650.46813645 61.95175174 650.46600181 78.33700988 650.45989486 C93.29008562 650.45472935 108.24309613 650.46597481 123.19615897 650.48499308 C138.58859899 650.50441846 153.98100824 650.51261913 169.37346059 650.50886983 C177.99959257 650.50696464 186.62566909 650.50937818 195.251791 650.52358437 C202.59684857 650.53555937 209.94181656 650.53683517 217.28687551 650.5247942 C221.02600185 650.51894764 224.76496483 650.51768714 228.50407982 650.5297966 C265.51979251 650.64129846 296.31446109 645.32118563 324.01391602 618.92651367 C338.98700085 603.97442896 347.53139401 585.40164963 352.79907227 565.14526367 C353.0143457 564.40791992 353.22961914 563.67057617 353.45141602 562.91088867 C357.1645964 549.79279153 355.95402481 535.27398083 355.96020508 521.77783203 C355.96483997 519.41283085 355.96986553 517.0478304 355.97525024 514.68283081 C355.98967047 507.6176033 355.99574949 500.55238367 356.00064576 493.48714408 C356.00323435 490.14687558 356.00702328 486.80660838 356.01076508 483.46634102 C356.0229456 472.34233598 356.03324793 461.21833281 356.03664017 450.09432125 C356.03685973 449.38439285 356.0370793 448.67446444 356.03730552 447.94302306 C356.0375238 447.23154163 356.03774207 446.52006019 356.03796697 445.78701872 C356.03841041 444.34564268 356.03885697 442.90426665 356.03930664 441.46289062 C356.03952807 440.74794115 356.0397495 440.03299168 356.03997764 439.29637707 C356.04392135 427.7251644 356.06136781 416.15401486 356.08466616 404.58282655 C356.10847229 392.6618516 356.12084617 380.74090822 356.12200809 368.81990916 C356.12291956 362.14322075 356.12886393 355.46663243 356.1468277 348.78996086 C356.16341456 342.50337347 356.16541275 336.21694141 356.15668869 329.93033981 C356.15592399 327.63718688 356.16018512 325.34402521 356.17014694 323.05089378 C356.31658321 287.20962008 348.15153754 255.54159149 322.36157227 229.33276367 C301.62753394 208.93161128 274.9671019 199.7936422 246.20172119 199.88456726 C244.2429467 199.87882894 244.2429467 199.87882894 242.24460101 199.87297469 C238.65825844 199.86278124 235.0720168 199.86485416 231.48566628 199.86915529 C227.6027687 199.87163843 223.71989445 199.86258872 219.83700562 199.8551178 C212.24439196 199.84241222 204.65181375 199.84057195 197.05919126 199.84291806 C190.88258378 199.84470618 184.705987 199.84294102 178.5293808 199.83869362 C177.64793486 199.83809843 176.76648892 199.83750324 175.8583325 199.83689002 C174.06724987 199.83567817 172.27616725 199.83446404 170.48508462 199.83324764 C153.71313257 199.82238786 136.94120066 199.82452707 120.16924748 199.83063249 C104.85586544 199.83579913 89.54254707 199.82455007 74.22917762 199.80553427 C58.47291506 199.7861198 42.71668256 199.77790625 26.96040797 199.78165752 C18.12752737 199.78356424 9.29470093 199.78113392 0.46183014 199.76694298 C-7.05861166 199.75498203 -14.57896597 199.75367673 -22.09940907 199.76573315 C-25.92941629 199.77158921 -29.75926387 199.77281307 -33.5892601 199.76073074 C-71.87084211 199.64838534 -103.0905223 207.80051009 -129.8293457 236.60083008 Z " fill="#1B3B6F" transform="translate(396.200927734375,14.854736328125)"/>
<path d="M0 0 C14.42615396 11.06472003 23.26095592 26.59666411 25.6640625 44.5703125 C27.29222426 62.6672369 23.54554054 79.19635068 12.25 93.609375 C1.29965169 106.51291636 -13.60338214 116.32633932 -30.80859375 118.03515625 C-50.87050321 119.36173216 -68.7501729 114.84530126 -84.27734375 101.4375 C-97.37344599 89.00832889 -104.55213482 73.10500998 -105.20898438 55.11645508 C-105.4851307 36.83811198 -99.80244312 20.61882644 -87.13623047 7.21777344 C-63.6581451 -16.50694719 -27.13286768 -18.98168629 0 0 Z " fill="#F5A726" transform="translate(619.80859375,392.96484375)"/>
<path d="M0 0 C1.04953857 0.00757324 2.09907715 0.01514648 3.18041992 0.02294922 C22.11965938 0.42345486 36.12821008 8.07885673 49.1875 21.4375 C62.31843634 35.73996969 66.03232509 52.19423931 65.53125 71.08203125 C64.71599621 87.68118074 56.79233005 102.74176448 44.76904297 114.06054688 C37.02451598 120.80323478 28.05593524 125.62903022 18.1875 128.4375 C17.51203125 128.66050781 16.8365625 128.88351562 16.140625 129.11328125 C-0.19397147 133.76674187 -18.41371256 129.95971972 -33.03515625 122.12890625 C-48.52406466 112.69613924 -58.54832373 99.00068093 -63.8125 81.75 C-67.65785556 63.49704603 -65.04842046 44.13941984 -54.8125 28.4375 C-41.43869941 10.55538394 -22.4816183 -0.22882978 0 0 Z " fill="#F5A726" transform="translate(410.8125,380.5625)"/>
<path d="M0 0 C0.66 0.33 1.32 0.66 2 1 C-8.56 11.56 -19.12 22.12 -30 33 C-30.66 32.67 -31.32 32.34 -32 32 C-11.630512 10.13462773 -11.630512 10.13462773 -2.56640625 2.34765625 C-1.68751602 1.59150381 -0.81982149 0.81982149 0 0 Z " fill="#667B9E" transform="translate(158,99)"/>
</svg>
